<?xml version="1.0" encoding="UTF-8" standalone="no"?>
<!-- Created with Inkscape (http://www.inkscape.org/) -->
<svg xmlns:dc="http://purl.org/dc/elements/1.1/" xmlns:cc="http://creativecommons.org/ns#" xmlns:rdf="http://www.w3.org/1999/02/22-rdf-syntax-ns#" xmlns:svg="http://www.w3.org/2000/svg" xmlns="http://www.w3.org/2000/svg" xmlns:sodipodi="http://sodipodi.sourceforge.net/DTD/sodipodi-0.dtd" xmlns:inkscape="http://www.inkscape.org/namespaces/inkscape" width="69.998779" height="158.5341" id="svg6265" version="1.1" inkscape:version="0.48.0 r9654" sodipodi:docname="New document 22">
  <defs id="defs6267"/>
  <sodipodi:namedview id="base" pagecolor="#ffffff" bordercolor="#666666" borderopacity="1.0" inkscape:pageopacity="0.0" inkscape:pageshadow="2" inkscape:zoom="1.979899" inkscape:cx="154.46633" inkscape:cy="64.371932" inkscape:document-units="px" inkscape:current-layer="layer1" showgrid="false" fit-margin-top="0" fit-margin-left="0" fit-margin-right="0" fit-margin-bottom="0" inkscape:window-width="1600" inkscape:window-height="1148" inkscape:window-x="0" inkscape:window-y="25" inkscape:window-maximized="1"/>
  <metadata id="metadata6270">
    <rdf:RDF>
      <cc:Work rdf:about="">
        <dc:format>image/svg+xml</dc:format>
        <dc:type rdf:resource="http://purl.org/dc/dcmitype/StillImage"/>
        <dc:title/>
      </cc:Work>
    </rdf:RDF>
  </metadata>
  <g inkscape:label="Layer 1" inkscape:groupmode="layer" id="layer1" transform="translate(-227.85545,-690.23583)">
    <g transform="translate(-289.25695,-151.11829)" id="g6198">
      <path inkscape:connector-curvature="0" id="path5408" d="m 537.83864,965.18731 c 0,0 -9.16265,43.33659 11.35503,29.89478 20.51771,-13.44182 10.55075,-31.58381 10.55075,-31.58381" style="fill:#008000;stroke:#000000;stroke-width:4.44809008;stroke-linecap:butt;stroke-linejoin:miter;stroke-miterlimit:4;stroke-opacity:1;stroke-dasharray:none" inkscape:transform-center-x="20.268557" inkscape:transform-center-y="5.4731453"/>
      <g transform="matrix(0.0815394,-0.99667012,0.99667012,0.0815394,-179.53209,1202.9557)" id="g5410">
        <path sodipodi:end="3.1896387" sodipodi:start="0" transform="matrix(-0.3963634,0.0215978,0.05432099,0.34708202,408.00232,574.63667)" d="m 365.7143,313.79074 c 0,71.79702 -43.49234,130 -97.14286,130 -53.65052,0 -97.14286,-58.20298 -97.14286,-130 0,-2.08209 0.0374,-4.16389 0.1121,-6.24358 l 97.03076,6.24358 z" sodipodi:ry="130" sodipodi:rx="97.14286" sodipodi:cy="313.79074" sodipodi:cx="268.57144" id="path5412" style="fill:#008000;fill-opacity:1;stroke:#000000;stroke-width:9.09753895;stroke-miterlimit:4;stroke-opacity:1;stroke-dasharray:none" sodipodi:type="arc"/>
        <path sodipodi:type="arc" style="fill:#2db92d;fill-opacity:1;stroke:#000000;stroke-width:9.09753895;stroke-miterlimit:4;stroke-opacity:1;stroke-dasharray:none" id="path5414" sodipodi:cx="268.57144" sodipodi:cy="313.79074" sodipodi:rx="97.14286" sodipodi:ry="130" d="m 365.7143,313.79074 c 0,71.79702 -43.49234,130 -97.14286,130 -53.65052,0 -97.14286,-58.20298 -97.14286,-130 0,-2.08209 0.0374,-4.16389 0.1121,-6.24358 l 97.03076,6.24358 z" transform="matrix(-0.32319569,0.01283864,0.03744146,0.13825738,392.33866,641.90593)" sodipodi:start="0" sodipodi:end="3.1896387" inkscape:transform-center-x="-41.844265" inkscape:transform-center-y="-7.3951947"/>
        <path style="fill:none;stroke:#000000;stroke-width:1px;stroke-linecap:butt;stroke-linejoin:miter;stroke-opacity:1" d="m 315,689.50504 -8.57143,15" id="path5416" inkscape:connector-curvature="0"/>
        <path style="fill:none;stroke:#000000;stroke-width:1px;stroke-linecap:butt;stroke-linejoin:miter;stroke-opacity:1" d="m 336.42857,688.79075 -7.14286,16.42858" id="path5418" inkscape:connector-curvature="0"/>
      </g>
      <path transform="matrix(0.34831413,-0.02794377,0.02794377,0.34831413,840.29194,851.83943)" d="m -731.42855,15.219325 c 0,59.962343 -43.49234,108.571425 -97.14286,108.571425 -53.65052,0 -97.14286,-48.609082 -97.14286,-108.571425 0,-59.962343 43.49234,-108.571426 97.14286,-108.571426 53.65052,0 97.14286,48.609083 97.14286,108.571426 z" sodipodi:ry="108.57143" sodipodi:rx="97.14286" sodipodi:cy="15.219325" sodipodi:cx="-828.57141" id="path5422" style="fill:#008000;fill-opacity:1;stroke:#000000;stroke-width:5.8579998;stroke-miterlimit:4;stroke-opacity:1;stroke-dasharray:none" sodipodi:type="arc"/>
      <path sodipodi:nodetypes="cssssc" inkscape:transform-center-y="-18.701323" inkscape:transform-center-x="9.2526408" style="fill:#008000;stroke:#000000;stroke-width:4.69999981;stroke-linecap:butt;stroke-linejoin:miter;stroke-miterlimit:4;stroke-opacity:1;stroke-dasharray:none" d="m 553.86385,927.02238 c 0,0 -8.17827,2.07412 -15.76892,1.97186 -2.33985,-0.0315 -4.59165,-7.02536 -6.6057,-6.52939 -1.86397,0.459 -1.55057,7.61881 -3.24819,8.23925 -8.00907,2.92714 -10.5628,8.33291 -1.81727,16.25088 19.10001,17.29263 34.94058,2.04448 34.94058,2.04448" id="path5426" inkscape:connector-curvature="0"/>
      <path sodipodi:nodetypes="csc" inkscape:transform-center-y="9.8787185" inkscape:transform-center-x="18.243181" style="fill:#008000;stroke:#000000;stroke-width:4.74900007;stroke-linecap:butt;stroke-linejoin:miter;stroke-miterlimit:4;stroke-opacity:1;stroke-dasharray:none" d="m 551.7067,964.94494 c 0,0 4.589,46.38846 21.06558,26.58021 16.47658,-19.80823 -1.72568,-36.20169 -1.72568,-36.20169" id="path5434" inkscape:connector-curvature="0"/>
      <path sodipodi:nodetypes="cscsc" inkscape:connector-curvature="0" id="path5436" d="m 577.66324,944.69055 c 0,0 -5.49468,4.5332 -5.80105,2.73808 -0.30639,-1.79511 0.1289,-17.1461 2.25066,-16.37136 1.11305,0.40643 1.98798,2.32831 3.94557,4.89924 1.77403,2.32989 -0.39518,8.73404 -0.39518,8.73404 z" style="fill:#d4aa00;stroke:#000000;stroke-width:1px;stroke-linecap:butt;stroke-linejoin:miter;stroke-opacity:1" inkscape:transform-center-x="-28.319872" inkscape:transform-center-y="16.136578"/>
      <path sodipodi:nodetypes="cccc" inkscape:transform-center-y="-10.253323" inkscape:transform-center-x="-28.722917" style="fill:#d4aa00;stroke:#000000;stroke-width:1px;stroke-linecap:butt;stroke-linejoin:miter;stroke-opacity:1" d="m 573.61721,953.70032 c 0,0 -5.04546,9.01094 -6.51553,7.93613 -1.47008,-1.07478 -3.7443,-6.15635 -1.68216,-7.07811 2.06214,-0.92173 8.19769,-0.85802 8.19769,-0.85802 z" id="path5438" inkscape:connector-curvature="0"/>
      <g id="g5477" transform="matrix(0.0815394,-0.99667012,0.99667012,0.0815394,-75.961816,1465.7929)">
        <path sodipodi:type="arc" style="fill:#ffffff;fill-opacity:1;stroke:#000000;stroke-width:5.8579998;stroke-miterlimit:4;stroke-opacity:1;stroke-dasharray:none" id="path5479" sodipodi:cx="-1571.4286" sodipodi:cy="-16.209246" sodipodi:rx="85.714287" sodipodi:ry="82.85714" d="m -1485.7143,-16.209246 c 0,45.760735 -38.3756,82.85714 -85.7143,82.85714 -47.3387,0 -85.7143,-37.096405 -85.7143,-82.85714 0,-45.760734 38.3756,-82.857139 85.7143,-82.857139 47.3387,0 85.7143,37.096405 85.7143,82.857139 z" transform="matrix(0.06526669,0.14155158,-0.15382111,0.07092392,747.45485,788.17972)"/>
        <g transform="matrix(0.05118901,0.21505966,-0.19113766,0.04549504,785.49171,702.33907)" id="g5481">
          <path transform="matrix(0.83887957,0,0,0.62027172,107.13328,408.01834)" d="m -991.42855,186.6479 c 0,31.55913 -16.62945,57.14286 -37.14285,57.14286 -20.5134,0 -37.1429,-25.58373 -37.1429,-57.14286 0,-31.55912 16.6295,-57.14285 37.1429,-57.14285 20.5134,0 37.14285,25.58373 37.14285,57.14285 z" sodipodi:ry="57.142857" sodipodi:rx="37.142857" sodipodi:cy="186.6479" sodipodi:cx="-1028.5714" id="path5483" style="fill:#000000;fill-opacity:1;stroke:#000000;stroke-width:8.31400013;stroke-miterlimit:4;stroke-opacity:1;stroke-dasharray:none" sodipodi:type="arc"/>
          <path sodipodi:type="arc" style="fill:#ffffff;fill-opacity:1;stroke:#000000;stroke-width:8.31400013;stroke-miterlimit:4;stroke-opacity:1;stroke-dasharray:none" id="path5485" sodipodi:cx="-1028.5714" sodipodi:cy="186.6479" sodipodi:rx="37.142857" sodipodi:ry="57.142857" d="m -991.42855,186.6479 c 0,31.55913 -16.62945,57.14286 -37.14285,57.14286 -20.5134,0 -37.1429,-25.58373 -37.1429,-57.14286 0,-31.55912 16.6295,-57.14285 37.1429,-57.14285 20.5134,0 37.14285,25.58373 37.14285,57.14285 z" transform="matrix(0.46479587,0,0,0.34367237,-271.92424,442.50217)"/>
        </g>
      </g>
      <g transform="matrix(0.0815394,-0.99667012,0.99667012,0.0815394,-53.601476,1464.0389)" id="g5487">
        <path transform="matrix(0.06526669,0.14155158,-0.15382111,0.07092392,747.45485,788.17972)" d="m -1485.7143,-16.209246 c 0,45.760735 -38.3756,82.85714 -85.7143,82.85714 -47.3387,0 -85.7143,-37.096405 -85.7143,-82.85714 0,-45.760734 38.3756,-82.857139 85.7143,-82.857139 47.3387,0 85.7143,37.096405 85.7143,82.857139 z" sodipodi:ry="82.85714" sodipodi:rx="85.714287" sodipodi:cy="-16.209246" sodipodi:cx="-1571.4286" id="path5489" style="fill:#ffffff;fill-opacity:1;stroke:#000000;stroke-width:5.8579998;stroke-miterlimit:4;stroke-opacity:1;stroke-dasharray:none" sodipodi:type="arc"/>
        <g id="g5491" transform="matrix(0.05118901,0.21505966,-0.19113766,0.04549504,785.49171,702.33907)">
          <path sodipodi:type="arc" style="fill:#000000;fill-opacity:1;stroke:#000000;stroke-width:8.31400013;stroke-miterlimit:4;stroke-opacity:1;stroke-dasharray:none" id="path5493" sodipodi:cx="-1028.5714" sodipodi:cy="186.6479" sodipodi:rx="37.142857" sodipodi:ry="57.142857" d="m -991.42855,186.6479 c 0,31.55913 -16.62945,57.14286 -37.14285,57.14286 -20.5134,0 -37.1429,-25.58373 -37.1429,-57.14286 0,-31.55912 16.6295,-57.14285 37.1429,-57.14285 20.5134,0 37.14285,25.58373 37.14285,57.14285 z" transform="matrix(0.83887957,0,0,0.62027172,107.13328,408.01834)"/>
          <path transform="matrix(0.46479587,0,0,0.34367237,-271.92424,442.50217)" d="m -991.42855,186.6479 c 0,31.55913 -16.62945,57.14286 -37.14285,57.14286 -20.5134,0 -37.1429,-25.58373 -37.1429,-57.14286 0,-31.55912 16.6295,-57.14285 37.1429,-57.14285 20.5134,0 37.14285,25.58373 37.14285,57.14285 z" sodipodi:ry="57.142857" sodipodi:rx="37.142857" sodipodi:cy="186.6479" sodipodi:cx="-1028.5714" id="path5495" style="fill:#ffffff;fill-opacity:1;stroke:#000000;stroke-width:8.31400013;stroke-miterlimit:4;stroke-opacity:1;stroke-dasharray:none" sodipodi:type="arc"/>
        </g>
      </g>
      <path sodipodi:end="3.0482296" sodipodi:start="0" transform="matrix(0.23734192,-0.05200194,0.03023731,0.23080883,747.71806,836.99286)" sodipodi:type="arc" style="fill:#000000;fill-opacity:1;stroke:#000000;stroke-width:5.8579998;stroke-miterlimit:4;stroke-opacity:1;stroke-dasharray:none" id="path5497" sodipodi:cx="-828.57141" sodipodi:cy="15.219325" sodipodi:rx="97.14286" sodipodi:ry="108.57143" d="m -731.42855,15.219325 c 0,59.962343 -43.49234,108.571425 -97.14286,108.571425 -50.14192,0 -92.04518,-42.652682 -96.71979,-98.449585 l 96.71979,-10.12184 z"/>
      <path sodipodi:nodetypes="ccccc" inkscape:connector-curvature="0" id="rect6172" d="m 543.75787,903.42151 8.13749,0 0,6.27998 c -3.10369,0.5554 -5.6793,-0.18984 -8.62856,-1.00446 z" style="fill:#ffffff;fill-opacity:1;stroke:#000000;stroke-width:0.1106712;stroke-miterlimit:4;stroke-opacity:1;stroke-dashoffset:0"/>
      <rect inkscape:transform-center-y="3.6374627" inkscape:transform-center-x="-4.9815366" transform="matrix(0.9593998,-0.28204969,0.28204969,0.9593998,0,0)" style="fill:#ffffff;fill-opacity:1;stroke:#000000;stroke-width:0.1106712;stroke-miterlimit:4;stroke-opacity:1;stroke-dasharray:none;stroke-dashoffset:0" id="rect6174" width="8.1374846" height="6.2799807" x="261.27802" y="1003.6971" ry="2.1843412" rx="0"/>
      <rect rx="0" ry="2.1843412" y="974.29022" x="367.66666" height="6.2799807" width="8.1374846" id="rect6176" style="fill:#ffffff;fill-opacity:1;stroke:#000000;stroke-width:0.1106712;stroke-miterlimit:4;stroke-opacity:1;stroke-dasharray:none;stroke-dashoffset:0" transform="matrix(0.98112371,-0.19338112,0.19338112,0.98112371,0,0)" inkscape:transform-center-x="-4.6290467" inkscape:transform-center-y="4.0766472"/>
      <rect inkscape:transform-center-y="3.9912897" inkscape:transform-center-x="-4.7028359" transform="matrix(0.9774231,-0.21129149,0.21129149,0.9774231,0,0)" style="fill:#ffffff;fill-opacity:1;stroke:#000000;stroke-width:0.1106712;stroke-miterlimit:4;stroke-opacity:1;stroke-dasharray:none;stroke-dashoffset:0" id="rect6178" width="8.1374846" height="6.2799807" x="365.63635" y="979.52618" ry="2.1843412" rx="0"/>
      <path sodipodi:nodetypes="ccccc" inkscape:connector-curvature="0" id="rect6192" d="m 217.52757,1036.9731 7.48148,-0.8086 0.29753,5.4617 c -2.33812,1.2129 -4.79445,1.5753 -7.19167,2.3629 z" inkscape:transform-center-y="0.98214286" inkscape:transform-center-x="2.1428571" style="fill:#ffffff;fill-opacity:1;stroke:#000000;stroke-width:0.1106712;stroke-miterlimit:4;stroke-opacity:1;stroke-dashoffset:0" transform="matrix(0.93977991,-0.34178023,0.34178023,0.93977991,0,0)"/>
    </g>
  </g>
</svg>